<svg viewBox="0 0 92 80" fill="none" xmlns="http://www.w3.org/2000/svg"><path d="m12.34 45.828.005.007.006.007c2.639 2.996 5.947 5.452 9.705 7.21a32.563 32.563 0 0 0 12.105 2.993 32.981 32.981 0 0 0 12.401-1.734c3.953-1.36 7.547-3.46 10.544-6.165 2.996-2.705 5.33-5.954 6.841-9.536a24.806 24.806 0 0 0 1.925-11.245c-.243-3.83-1.382-7.569-3.337-10.97-1.956-3.4-4.684-6.385-8.002-8.76l-.291.406.272-.42a.577.577 0 0 1-.248-.322.477.477 0 0 1 .04-.358.642.642 0 0 1 .33-.284.808.808 0 0 1 .498-.034c5.97 1.539 11.385 4.455 15.713 8.457 4.327 4.002 7.416 8.949 8.967 14.348a29.004 29.004 0 0 1-.112 16.452c-1.625 5.382-4.782 10.294-9.164 14.248-4.382 3.954-9.838 6.81-15.829 8.282a39.4 39.4 0 0 1-18.315.102c-6.01-1.405-11.505-4.201-15.941-8.106-4.434-3.903-7.656-8.776-9.355-14.137a.477.477 0 0 1 .04-.346c.061-.116.17-.22.32-.284a.806.806 0 0 1 .492-.043.702.702 0 0 1 .39.232Z" stroke="currentColor"></path><path d="M79.173 34.298c.302-1.936.417-3.889.345-5.837a29.111 29.111 0 0 1 1.431 9.421c-.061 4.362-1.11 8.668-3.084 12.654-1.974 3.987-4.831 7.572-8.4 10.533-3.57 2.96-7.776 5.235-12.36 6.68a39.256 39.256 0 0 1-14.294 1.72c-4.846-.311-9.568-1.512-13.878-3.528-4.309-2.016-8.113-4.803-11.18-8.188-3.066-3.385-5.33-7.296-6.658-11.493l-.004-.013a.41.41 0 0 1 .004-.284c3.692 5.875 9.286 10.586 16.028 13.501 6.934 2.998 14.735 3.948 22.298 2.718 7.562-1.231 14.51-4.582 19.853-9.584 5.343-5.002 8.81-11.404 9.899-18.3Z" stroke="currentColor"></path><path d="M54.242 8.04c3.262 2.337 5.94 5.27 7.86 8.605 1.917 3.336 3.033 7 3.272 10.752a24.305 24.305 0 0 1-1.887 11.018c-1.483 3.512-3.772 6.702-6.717 9.36-2.944 2.658-6.479 4.724-10.37 6.063a32.481 32.481 0 0 1-12.213 1.708 32.064 32.064 0 0 1-11.92-2.948c-3.698-1.729-6.95-4.144-9.54-7.086a1.202 1.202 0 0 0-.666-.403 1.306 1.306 0 0 0-.799.07c-.248.106-.449.287-.566.512a.976.976 0 0 0-.078.72c1.727 5.455 5.004 10.408 9.504 14.37 4.502 3.962 10.071 6.795 16.159 8.218a39.901 39.901 0 0 0 18.548-.103c6.067-1.491 11.598-4.386 16.044-8.397 4.447-4.012 7.655-9.001 9.307-14.475a29.503 29.503 0 0 0 .115-16.734c-1.578-5.491-4.718-10.516-9.11-14.577-4.39-4.06-9.881-7.016-15.928-8.574a1.308 1.308 0 0 0-.81.055c-.254.103-.46.284-.582.511a.977.977 0 0 0-.08.73c.068.244.23.458.457.606v0Z" stroke="currentColor" stroke-width="0.5" stroke-linecap="round" stroke-linejoin="round"></path><path clip-rule="evenodd" d="M28.306 38.49c1.355-4.41 2.243-7.634 3.174-13.1-.05.085 7.202-2.569 10.347-3.753-4.508-.57-10.678-1.417-10.617-1.324-.848-3.48-1.636-8.948-3.62-15.313-.852 4.775-2.35 10.221-2.973 15.03-3.843 1-6.947 2.025-10.617 3.573 4.511.96 7.36 1.888 11.077 2.73 1.125 5.027 1.95 7.847 3.229 12.158Z" stroke="currentColor" stroke-width="1.5" stroke-miterlimit="1.5" stroke-linecap="round" stroke-linejoin="round"></path><path d="M5.744 25c.02 1.313-.077 2.688.05 3.994M2 32.059c.708.011 1.434-.104 2.14-.05M6.206 33.953c-.185 1.095-.145 2.213-.15 3.322M8.378 31.378c.983.085 2.025-.244 2.98-.015" stroke="currentColor" stroke-width="1.5" stroke-miterlimit="1.5" stroke-linecap="round" stroke-linejoin="round"></path></svg>